<svg xmlns="http://www.w3.org/2000/svg" version="1.1" xmlns:xlink="http://www.w3.org/1999/xlink" width="512" height="512" x="0" y="0" viewBox="0 0 64 64" style="enable-background:new 0 0 512 512" xml:space="preserve" class=""><g><path d="M53.48 36.5c-2.15-.06-3.93.91-4.97 1.65C41.57 24.96 38.17 5.97 38.13 5.77a1 1 0 0 0-.52-.71 1.03 1.03 0 0 0-.89-.02C18.43 13.68 15.4 31.81 14.9 37.76c-1.05-.63-2.54-1.26-4.31-1.26h-.07c-2.23.03-4.33 1.05-6.24 3.04-3.5 3.67-2.6 10.31.3 14.61 2.86 4.24 7.03 5.85 11.23 4.36 1.02.37 2.05.54 3.05.54 3.11 0 6.01-1.7 8.17-4.9 1.58-2.35 2.57-5.39 2.57-8.27 0-2.4-.68-4.67-2.27-6.34-1.91-1.99-4.01-3.01-6.23-3.04-1.68-.05-3.13.53-4.18 1.13.52-5.71 3.42-21.92 19.49-30.2.86 4.29 3.92 18.37 9.28 29.56-.8-.29-1.71-.49-2.71-.49h-.08c-2.22.03-4.32 1.05-6.23 3.04-3.5 3.67-2.6 10.31.3 14.61C39.82 58.39 44 60 48.19 58.51c1.03.37 2.06.54 3.06.54 3.1 0 6.01-1.7 8.17-4.9 1.58-2.35 2.57-5.39 2.57-8.27 0-2.4-.68-4.67-2.27-6.34-1.91-1.99-4.01-3.01-6.24-3.04zm4.28 16.54c-1.14 1.69-4.32 5.41-9.2 3.48a.946.946 0 0 0-.37-.08c-.12 0-.25.03-.37.08-4.88 1.93-8.05-1.79-9.19-3.48-2.4-3.57-3.28-9.22-.51-12.12 1.51-1.58 3.12-2.39 4.79-2.42 2.47-.06 4.32 1.65 4.55 1.87.06.06.12.11.19.15.05.04.11.06.16.09h.01c.12.05.24.08.37.08.12 0 .23-.02.34-.07h.01c.03-.01.07-.02.1-.04.01-.01.03-.01.04-.02.05-.03.1-.06.15-.11.03-.02.05-.04.07-.06.01-.01.02-.02.03-.02.23-.23 2.05-1.87 4.48-1.87h.05c1.67.02 3.29.84 4.81 2.42 2.77 2.9 1.89 8.55-.51 12.12z" fill="#910303" opacity="1" data-original="#000000" class=""></path></g></svg>